<mxfile host="app.diagrams.net" modified="2021-12-16T08:57:49.102Z" agent="5.0 (Macintosh; Intel Mac OS X 10_15_7) AppleWebKit/537.36 (KHTML, like Gecko) Chrome/96.0.4664.110 Safari/537.36" etag="ahT4dGlft9yWoebfdq_V" version="15.8.6" type="github">
  <diagram id="_r5gbGnqMD1R-FKgFToz" name="Page-1">
    <mxGraphModel dx="1212" dy="743" grid="1" gridSize="10" guides="1" tooltips="1" connect="1" arrows="1" fold="1" page="1" pageScale="1" pageWidth="827" pageHeight="1169" math="0" shadow="0">
      <root>
        <mxCell id="0" />
        <mxCell id="1" parent="0" />
        <mxCell id="Yunj3tXVu6rQsx3BOvY3-1" value="" style="rounded=0;whiteSpace=wrap;html=1;fillColor=#d5e8d4;strokeColor=#82b366;gradientColor=#97d077;" vertex="1" parent="1">
          <mxGeometry x="40" y="210" width="760" height="60" as="geometry" />
        </mxCell>
        <mxCell id="Yunj3tXVu6rQsx3BOvY3-2" value="" style="endArrow=none;dashed=1;html=1;rounded=0;strokeWidth=2;" edge="1" parent="1">
          <mxGeometry width="50" height="50" relative="1" as="geometry">
            <mxPoint x="25" y="290" as="sourcePoint" />
            <mxPoint x="815" y="290" as="targetPoint" />
          </mxGeometry>
        </mxCell>
        <mxCell id="Yunj3tXVu6rQsx3BOvY3-3" value="Java" style="rounded=1;whiteSpace=wrap;html=1;" vertex="1" parent="1">
          <mxGeometry x="80" y="221" width="90" height="40" as="geometry" />
        </mxCell>
        <mxCell id="Yunj3tXVu6rQsx3BOvY3-4" value="Rust" style="rounded=1;whiteSpace=wrap;html=1;" vertex="1" parent="1">
          <mxGeometry x="224" y="221" width="90" height="40" as="geometry" />
        </mxCell>
        <mxCell id="Yunj3tXVu6rQsx3BOvY3-5" value="Golang" style="rounded=1;whiteSpace=wrap;html=1;" vertex="1" parent="1">
          <mxGeometry x="377" y="221" width="90" height="40" as="geometry" />
        </mxCell>
        <mxCell id="Yunj3tXVu6rQsx3BOvY3-6" value="HTTP" style="rounded=1;whiteSpace=wrap;html=1;" vertex="1" parent="1">
          <mxGeometry x="526" y="221" width="90" height="40" as="geometry" />
        </mxCell>
        <mxCell id="Yunj3tXVu6rQsx3BOvY3-7" value="CTL" style="rounded=1;whiteSpace=wrap;html=1;" vertex="1" parent="1">
          <mxGeometry x="670" y="220" width="90" height="40" as="geometry" />
        </mxCell>
        <mxCell id="Yunj3tXVu6rQsx3BOvY3-8" value="&lt;font style=&quot;font-size: 32px&quot;&gt;Protocol layer&lt;/font&gt;" style="rounded=0;whiteSpace=wrap;html=1;fillColor=#dae8fc;strokeColor=#6c8ebf;gradientColor=#7ea6e0;" vertex="1" parent="1">
          <mxGeometry x="40" y="310" width="760" height="60" as="geometry" />
        </mxCell>
        <mxCell id="Yunj3tXVu6rQsx3BOvY3-9" value="" style="endArrow=none;dashed=1;html=1;rounded=0;strokeWidth=2;" edge="1" parent="1">
          <mxGeometry width="50" height="50" relative="1" as="geometry">
            <mxPoint x="27" y="391" as="sourcePoint" />
            <mxPoint x="817" y="391" as="targetPoint" />
          </mxGeometry>
        </mxCell>
        <mxCell id="Yunj3tXVu6rQsx3BOvY3-10" value="Cache layer" style="rounded=0;whiteSpace=wrap;html=1;fontSize=32;fillColor=#ffcd28;gradientColor=#ffa500;strokeColor=#d79b00;" vertex="1" parent="1">
          <mxGeometry x="40" y="412" width="760" height="62" as="geometry" />
        </mxCell>
        <mxCell id="Yunj3tXVu6rQsx3BOvY3-11" value="" style="endArrow=none;dashed=1;html=1;rounded=0;strokeWidth=2;" edge="1" parent="1">
          <mxGeometry width="50" height="50" relative="1" as="geometry">
            <mxPoint x="27" y="497" as="sourcePoint" />
            <mxPoint x="817" y="497" as="targetPoint" />
          </mxGeometry>
        </mxCell>
        <mxCell id="Yunj3tXVu6rQsx3BOvY3-12" value="Badger layer" style="rounded=0;whiteSpace=wrap;html=1;fontSize=32;fillColor=#f8cecc;strokeColor=#b85450;gradientColor=#ea6b66;" vertex="1" parent="1">
          <mxGeometry x="40" y="517" width="760" height="61" as="geometry" />
        </mxCell>
      </root>
    </mxGraphModel>
  </diagram>
</mxfile>
